<?xml version="1.0" encoding="UTF-8"?>
<svg xmlns="http://www.w3.org/2000/svg" xmlns:xlink="http://www.w3.org/1999/xlink" width="329.844" height="60.628" viewBox="0 0 329.844 60.628">
  <defs>
    <clipPath id="a">
      <rect width="329.844" height="60.628" fill="#f3f1eb"></rect>
    </clipPath>
  </defs>
  <g clip-path="url(#a)">
    <path d="M79.617,0h-48.9S.024.254.024,32.94c0,0-1.247,8.982,14.222,2.5S78.7,14.564,78.368,24.341C77.91,37.9,72.631,47.91,50.424,47.91H.273V59.143h46.76A34.313,34.313,0,0,0,63.189,55.2c8.047-4.291,16.969-13.22,16.969-31.64-.246-1.727,2.787-16.66-66.6,10.3,0,0-15.473,6.549-11.231-3.556s9.3-18.952,29.756-18.952H79.991Z" transform="translate(0)" fill="#f3f1eb"></path>
    <path d="M247.6,31.406c.791-10.986,35.577-1.275,57.692-.462,22.622.832,20.959-19.586,20.959-19.586L325.872,0h-48.9s-27.348.232-30.407,27.76c0,0,0,.17-.064,1.126a20.066,20.066,0,0,0,.049,3.452c.009.078.015.122.015.122,3.06,27.528,30.407,27.76,30.407,27.76h48.9l.374-11.357H278.34c-19.557,0-29.873-3.388-30.745-17.456M278.34,11.357h37.92c-2.725,23.736-24.915,16.273-44,13.212-19.249-3.088-23.627,1.712-24.631,3.919C248.707,15.566,259,11.357,278.34,11.357" transform="translate(-162.177)" fill="#f3f1eb"></path>
    <path d="M487.975,31.406c.791-10.986,35.577-1.275,57.692-.462,22.622.832,20.959-19.586,20.959-19.586L566.252,0h-48.9S490,.232,486.941,27.76c0,0,0,.17-.064,1.126a20.069,20.069,0,0,0,.049,3.452c.009.078.015.122.015.122,3.06,27.528,30.407,27.76,30.407,27.76h48.9l.374-11.357H518.72c-19.557,0-29.873-3.388-30.745-17.456M518.72,11.357h37.92c-2.725,23.736-24.916,16.273-44,13.212-19.249-3.088-23.627,1.712-24.631,3.919,1.074-12.922,11.373-17.131,30.708-17.131" transform="translate(-320.363)" fill="#f3f1eb"></path>
    <path d="M764.43,33.328h1.118c-.085-.794-.14-1.619-.158-2.487.323-14.216,30.248-18.775,50.384-18.775h16.969L832.369.709h-9.918A107.741,107.741,0,0,0,792,4.984c-13.2,3.887-27.592,10.99-27.592,23.485,0,0-.074.585-.2,2.35a17.6,17.6,0,0,0,.2,2.35c.006.054.014.106.02.16" transform="translate(-502.899 -0.467)" fill="#f3f1eb"></path>
    <rect width="10.731" height="59.882" transform="translate(250.706 0.746)" fill="#f3f1eb"></rect>
    <path d="M783.577,102.834c-19.609.166-19.062-6.635-19.707-9.01l1.327-.145c2.073,11.572,29.869,4.486,48.7,6.766,18.978,2.3,18.019,20.387,17.706,21.83H817.51c1.411-23.7-16.914-19.585-33.933-19.441" transform="translate(-502.675 -61.647)" fill="#f3f1eb"></path>
  </g>
</svg>
